<?xml version="1.0" encoding="UTF-8" standalone="no"?>
<!DOCTYPE svg PUBLIC "-//W3C//DTD SVG 1.1//EN" "http://www.w3.org/Graphics/SVG/1.1/DTD/svg11.dtd">
<svg xmlns="http://www.w3.org/2000/svg" version="1.1" viewBox="0.00 0.00 1024.00 1024.00">
<path fill="#353333" d="
  M 442.72 318.31
  L 449.07 313.48
  L 455.77 309.15
  L 462.88 305.29
  L 470.28 301.97
  L 477.93 299.21
  L 485.80 297.01
  L 493.84 295.39
  L 502.01 294.37
  L 509.65 293.96
  L 517.88 294.00
  L 525.93 294.52
  L 533.66 295.57
  L 539.00 296.62
  L 544.20 297.90
  L 549.25 299.40
  L 554.16 301.12
  L 558.92 303.07
  L 563.54 305.25
  L 568.01 307.65
  L 572.34 310.28
  L 572.34 310.28
  L 572.34 310.28
  L 572.34 310.28
  L 572.34 310.28
  L 576.79 313.32
  L 581.08 316.62
  L 585.20 320.17
  L 589.16 323.98
  L 592.95 328.05
  L 596.58 332.37
  L 600.05 336.94
  L 603.35 341.77
  L 606.26 346.50
  L 609.01 351.48
  L 611.58 356.68
  L 613.99 362.13
  L 615.26 365.25
  L 619.54 376.99
  L 623.12 389.01
  L 626.00 401.31
  L 628.18 413.89
  L 628.85 417.08
  L 629.97 420.36
  L 631.54 423.84
  L 634.03 428.56
  L 636.87 433.99
  L 641.56 444.67
  L 645.57 455.58
  L 645.57 455.58
  L 645.57 455.58
  L 648.31 464.53
  L 650.61 473.62
  L 652.47 482.86
  L 653.89 492.25
  L 654.25 498.77
  L 654.22 509.58
  L 654.05 513.87
  L 653.68 518.09
  L 653.12 522.25
  L 652.35 526.33
  L 650.93 532.18
  L 649.21 537.86
  L 647.17 543.35
  L 644.83 548.66
  L 641.36 555.21
  L 637.39 561.40
  L 637.39 561.40
  L 637.39 561.40
  L 634.07 565.82
  L 630.46 570.03
  L 626.56 574.05
  L 622.38 577.86
  L 619.03 580.44
  L 616.00 582.76
  L 613.34 584.57
  L 610.99 585.94
  L 606.56 588.36
  L 600.56 591.11
  L 597.39 592.26
  L 595.54 592.99
  L 594.11 593.60
  L 592.95 593.87
  L 591.09 594.22
  L 588.72 594.91
  L 586.39 595.60
  L 584.55 595.95
  L 578.92 596.80
  L 572.90 597.70
  L 568.46 597.96
  L 464.36 597.88
  L 457.84 597.72
  L 451.07 597.26
  L 444.04 596.49
  L 437.79 595.50
  L 433.59 594.57
  L 429.33 593.35
  L 425.15 591.90
  L 421.29 590.34
  L 414.71 587.13
  L 408.57 583.46
  L 402.85 579.34
  L 397.57 574.77
  L 397.57 574.77
  L 392.50 569.49
  L 387.91 563.71
  L 383.79 557.43
  L 380.14 550.66
  L 377.43 544.59
  L 375.20 538.49
  L 373.42 532.35
  L 372.12 526.18
  L 371.95 525.22
  L 370.88 518.74
  L 370.28 514.07
  L 369.98 509.83
  L 369.98 505.89
  L 370.57 497.82
  L 371.65 489.61
  L 371.95 487.07
  L 372.41 483.63
  L 375.30 471.81
  L 376.94 466.27
  L 378.73 460.98
  L 381.16 454.52
  L 383.89 447.87
  L 390.23 433.95
  L 392.78 428.32
  L 394.83 422.98
  L 396.37 417.98
  L 397.42 413.17
  L 400.30 396.91
  L 402.36 387.85
  L 404.86 379.04
  L 407.82 370.39
  L 411.18 362.11
  L 414.93 354.20
  L 419.03 346.74
  L 423.52 339.65
  L 428.33 333.07
  L 433.55 326.95
  L 439.22 321.34
  L 439.22 321.34
  L 442.72 318.31
  Z
  M 392.08 465.65
  L 391.71 465.71
  L 391.41 465.89
  L 391.25 466.16
  L 389.59 471.47
  L 388.13 476.91
  L 386.91 482.32
  L 385.91 487.80
  L 385.18 493.14
  L 384.67 498.52
  L 384.41 503.76
  L 384.40 509.00
  L 384.63 514.01
  L 385.11 518.98
  L 385.82 523.77
  L 386.78 528.50
  L 387.96 532.99
  L 389.39 537.39
  L 391.04 541.59
  L 392.95 545.69
  L 396.45 551.86
  L 400.49 557.58
  L 405.10 562.90
  L 410.18 567.70
  L 415.70 571.94
  L 421.62 575.58
  L 427.80 578.57
  L 434.29 580.91
  L 439.02 582.16
  L 443.87 583.06
  L 448.72 583.60
  L 453.67 583.79
  L 500.96 583.75
  L 505.68 583.43
  L 510.57 582.52
  L 515.64 581.00
  L 520.88 578.88
  L 524.46 577.09
  L 528.18 574.92
  L 537.45 568.56
  L 545.00 563.32
  L 548.39 561.32
  L 551.85 559.63
  L 555.40 558.25
  L 559.02 557.19
  L 559.02 557.19
  L 563.10 556.38
  L 567.28 555.95
  L 571.55 555.89
  L 575.92 556.22
  L 579.75 557.08
  L 581.56 557.81
  L 583.10 558.64
  L 584.35 559.56
  L 585.41 560.62
  L 586.17 561.75
  L 586.68 563.01
  L 586.89 564.09
  L 586.86 565.63
  L 586.47 566.99
  L 585.60 568.29
  L 584.73 569.07
  L 583.82 569.57
  L 582.53 569.86
  L 580.98 569.77
  L 579.28 569.32
  L 577.02 568.41
  L 575.72 567.87
  L 573.52 567.29
  L 570.90 567.12
  L 567.92 567.39
  L 564.93 568.07
  L 560.33 569.80
  L 555.67 572.26
  L 550.70 575.53
  L 544.15 580.49
  L 540.48 583.32
  L 540.11 583.80
  L 540.69 583.94
  L 566.32 583.97
  L 571.81 583.88
  L 576.99 583.44
  L 582.04 582.63
  L 586.85 581.45
  L 592.06 579.69
  L 596.21 577.96
  L 600.18 576.07
  L 603.97 574.00
  L 607.59 571.77
  L 611.02 569.37
  L 614.28 566.81
  L 617.36 564.07
  L 620.26 561.17
  L 620.26 561.17
  L 620.26 561.17
  L 622.85 558.25
  L 625.28 555.19
  L 627.54 551.97
  L 629.65 548.60
  L 631.59 545.08
  L 633.38 541.40
  L 635.00 537.58
  L 636.46 533.60
  L 637.93 528.68
  L 639.10 523.44
  L 639.92 518.05
  L 640.43 512.39
  L 640.61 506.51
  L 640.46 500.42
  L 640.00 494.05
  L 639.21 487.51
  L 638.22 481.35
  L 637.01 475.31
  L 635.60 469.40
  L 633.98 463.61
  L 632.14 457.95
  L 630.10 452.41
  L 627.85 447.00
  L 625.39 441.71
  L 622.28 435.65
  L 618.59 428.98
  L 616.72 424.96
  L 615.70 421.50
  L 614.30 412.51
  L 612.67 403.89
  L 610.83 395.72
  L 608.75 387.88
  L 606.45 380.47
  L 603.91 373.40
  L 601.16 366.74
  L 598.18 360.44
  L 594.96 354.48
  L 591.52 348.92
  L 587.79 343.63
  L 583.86 338.77
  L 579.67 334.23
  L 575.31 330.11
  L 570.61 326.27
  L 565.76 322.85
  L 561.83 320.45
  L 557.72 318.24
  L 557.06 318.08
  L 556.50 318.23
  L 555.31 317.10
  L 554.39 316.57
  L 551.38 315.53
  L 548.83 314.32
  L 548.19 314.07
  L 547.95 314.03
  L 546.52 313.70
  L 544.78 313.04
  L 543.01 312.37
  L 541.55 312.04
  L 537.67 311.07
  L 533.55 310.07
  L 529.21 309.48
  L 520.62 308.48
  L 512.53 308.10
  L 504.94 308.34
  L 497.85 309.20
  L 491.64 310.09
  L 488.07 310.96
  L 486.12 311.54
  L 480.14 313.29
  L 474.36 315.42
  L 468.79 317.93
  L 463.44 320.80
  L 459.81 323.04
  L 456.30 325.46
  L 452.90 328.05
  L 449.62 330.81
  L 446.47 333.74
  L 443.44 336.83
  L 440.54 340.08
  L 437.77 343.49
  L 432.69 350.59
  L 428.28 357.93
  L 424.53 365.50
  L 421.46 373.30
  L 421.46 373.30
  L 421.36 373.60
  L 418.79 381.45
  L 416.70 388.53
  L 415.10 394.84
  L 413.97 400.38
  L 410.32 421.68
  L 409.74 424.26
  L 408.83 427.09
  L 407.66 429.98
  L 406.27 432.85
  L 402.63 439.98
  L 399.19 447.17
  L 395.96 454.40
  L 392.93 461.69
  L 392.48 463.04
  L 392.08 465.65
  Z"
/>
<path fill="#f2b957" d="
  M 348.40 449.35
  L 350.28 448.22
  L 351.97 446.96
  L 353.48 445.55
  L 354.80 444.01
  L 356.10 442.05
  L 357.16 439.91
  L 358.17 437.21
  L 358.94 434.51
  L 359.47 431.80
  L 359.76 429.08
  L 360.10 418.06
  L 360.24 330.24
  L 360.40 327.51
  L 360.85 324.57
  L 361.61 321.43
  L 362.67 318.07
  L 363.94 315.01
  L 365.46 312.30
  L 367.25 309.93
  L 369.30 307.92
  L 371.72 306.06
  L 374.24 304.50
  L 376.84 303.24
  L 379.53 302.28
  L 379.53 302.28
  L 379.53 302.28
  L 381.77 301.72
  L 384.06 301.36
  L 391.51 300.88
  L 399.39 301.08
  L 401.29 301.48
  L 402.56 302.40
  L 403.21 303.83
  L 403.22 305.77
  L 403.19 305.97
  L 402.60 307.97
  L 401.51 309.32
  L 401.51 309.32
  L 400.13 309.99
  L 398.36 310.15
  L 391.68 310.20
  L 384.94 310.96
  L 382.68 311.46
  L 380.59 312.19
  L 378.68 313.15
  L 376.95 314.33
  L 376.95 314.33
  L 376.31 314.87
  L 375.54 315.60
  L 375.54 315.60
  L 374.10 317.29
  L 372.89 319.20
  L 371.91 321.32
  L 371.15 323.67
  L 370.24 328.16
  L 369.93 332.50
  L 369.99 425.00
  L 369.85 428.77
  L 369.42 432.58
  L 368.45 437.29
  L 367.07 441.27
  L 364.43 446.58
  L 362.67 449.47
  L 360.76 451.90
  L 357.14 455.32
  L 355.21 456.74
  L 353.20 457.95
  L 349.79 459.53
  L 346.03 460.78
  L 336.58 463.36
  L 332.88 464.68
  L 330.05 466.39
  L 328.23 468.06
  L 326.73 469.94
  L 326.73 469.94
  L 325.77 471.56
  L 325.00 473.32
  L 324.59 474.60
  L 324.14 477.18
  L 323.94 479.89
  L 323.74 481.03
  L 323.27 482.00
  L 323.27 482.00
  L 323.03 482.32
  L 322.15 483.15
  L 321.16 483.65
  L 321.16 483.65
  L 321.16 483.65
  L 320.29 483.82
  L 319.36 483.79
  L 317.30 483.10
  L 316.44 482.53
  L 315.83 481.81
  L 315.83 481.81
  L 315.83 481.81
  L 315.50 481.05
  L 315.36 480.18
  L 315.37 476.67
  L 315.70 472.84
  L 316.04 470.88
  L 316.55 469.05
  L 317.25 467.35
  L 318.13 465.77
  L 320.45 462.66
  L 323.14 459.97
  L 323.14 459.97
  L 323.14 459.97
  L 324.95 458.56
  L 326.90 457.30
  L 328.98 456.20
  L 331.20 455.26
  L 335.73 453.70
  L 340.15 452.46
  L 344.45 451.13
  L 348.40 449.35
  Z"
/>
<path fill="#f2b957" d="
  M 700.09 476.22
  L 699.61 473.75
  L 698.76 471.53
  L 697.79 469.87
  L 696.61 468.37
  L 695.17 466.97
  L 693.54 465.75
  L 691.63 464.63
  L 689.57 463.71
  L 687.30 462.95
  L 684.94 462.39
  L 679.44 460.98
  L 676.99 460.27
  L 674.20 459.44
  L 672.15 458.59
  L 669.04 456.72
  L 666.07 454.29
  L 663.45 451.47
  L 661.06 448.17
  L 659.01 444.47
  L 657.39 440.57
  L 656.19 436.45
  L 655.47 432.30
  L 654.77 424.59
  L 654.36 416.21
  L 654.25 407.12
  L 654.38 394.94
  L 654.49 386.74
  L 654.39 362.87
  L 654.27 345.53
  L 654.38 333.08
  L 654.18 327.79
  L 653.82 325.40
  L 653.31 323.26
  L 652.63 321.35
  L 651.76 319.53
  L 650.73 317.93
  L 649.48 316.46
  L 648.48 315.52
  L 646.28 313.90
  L 643.91 312.65
  L 643.91 312.65
  L 643.91 312.65
  L 641.67 311.85
  L 639.29 311.35
  L 636.78 311.15
  L 634.14 311.25
  L 634.10 311.25
  L 629.85 311.49
  L 626.63 311.19
  L 625.35 310.84
  L 624.20 310.33
  L 623.30 309.69
  L 622.56 308.88
  L 622.00 307.77
  L 621.71 306.41
  L 621.79 304.65
  L 622.34 303.32
  L 622.93 302.63
  L 623.68 302.10
  L 625.73 301.34
  L 628.59 301.03
  L 632.62 301.13
  L 634.01 301.20
  L 641.97 301.83
  L 645.32 302.50
  L 648.52 303.56
  L 648.52 303.56
  L 648.52 303.56
  L 652.62 305.62
  L 656.44 308.38
  L 658.01 309.85
  L 659.37 311.41
  L 660.86 313.55
  L 662.13 315.99
  L 663.12 318.56
  L 663.89 321.44
  L 664.42 324.54
  L 664.76 327.97
  L 664.94 337.18
  L 664.94 338.89
  L 664.63 408.26
  L 664.71 421.12
  L 665.20 430.44
  L 665.81 434.18
  L 666.92 437.73
  L 666.92 437.73
  L 668.03 440.17
  L 669.41 442.50
  L 671.06 444.73
  L 672.96 446.86
  L 674.87 448.48
  L 677.22 449.88
  L 680.04 451.07
  L 683.25 452.01
  L 688.69 453.53
  L 691.73 454.42
  L 694.50 455.36
  L 697.12 456.57
  L 697.12 456.57
  L 697.12 456.57
  L 700.47 458.67
  L 703.56 461.27
  L 705.72 463.73
  L 707.30 466.32
  L 708.30 468.89
  L 708.94 471.78
  L 709.17 474.87
  L 709.02 478.32
  L 708.77 479.39
  L 708.27 480.23
  L 707.39 480.96
  L 706.29 481.35
  L 705.08 481.41
  L 703.84 481.13
  L 702.41 480.40
  L 701.31 479.39
  L 701.31 479.39
  L 700.50 477.97
  L 700.09 476.22
  Z"
/>
<path fill="#f2b957" d="
  M 392.08 465.65
  L 392.26 466.16
  L 392.55 466.45
  L 393.39 466.41
  L 396.39 465.05
  L 399.14 463.44
  L 401.64 461.60
  L 403.88 459.50
  L 403.88 459.50
  L 403.88 459.50
  L 405.74 457.33
  L 407.38 454.95
  L 408.80 452.35
  L 410.00 449.54
  L 411.62 445.81
  L 412.35 444.61
  L 413.02 443.86
  L 413.96 443.27
  L 415.08 442.85
  L 416.30 442.63
  L 417.56 442.60
  L 418.72 442.79
  L 419.78 443.18
  L 420.61 443.73
  L 421.26 444.47
  L 421.71 445.52
  L 421.84 446.83
  L 421.53 450.00
  L 420.89 452.97
  L 419.90 455.73
  L 418.58 458.29
  L 418.58 458.29
  L 418.58 458.29
  L 418.58 458.29
  L 417.43 460.00
  L 416.11 461.60
  L 415.49 462.28
  L 412.95 465.20
  L 411.38 467.54
  L 410.50 469.71
  L 410.27 471.82
  L 410.53 473.40
  L 411.20 475.05
  L 411.48 475.47
  L 412.14 476.05
  L 412.94 476.40
  L 413.92 476.56
  L 414.92 476.50
  L 417.12 475.91
  L 419.46 474.84
  L 421.71 473.42
  L 424.00 471.56
  L 426.21 469.35
  L 428.30 466.81
  L 430.12 464.13
  L 431.53 461.52
  L 433.09 457.95
  L 434.41 454.39
  L 435.50 450.85
  L 436.34 447.32
  L 436.95 443.81
  L 437.32 440.32
  L 437.45 436.84
  L 437.34 433.38
  L 437.34 433.38
  L 436.65 427.77
  L 433.30 408.23
  L 432.48 401.01
  L 432.36 394.08
  L 432.88 387.21
  L 434.06 380.34
  L 435.86 373.62
  L 438.27 367.06
  L 441.28 360.73
  L 444.87 354.65
  L 449.01 348.87
  L 452.98 344.32
  L 457.56 339.98
  L 462.56 336.05
  L 468.08 332.43
  L 473.97 329.24
  L 480.07 326.56
  L 486.39 324.37
  L 492.75 322.76
  L 498.50 321.78
  L 504.49 321.17
  L 510.52 320.95
  L 516.63 321.13
  L 522.64 321.70
  L 528.38 322.64
  L 534.02 323.97
  L 539.28 325.64
  L 542.72 326.79
  L 545.34 327.37
  L 547.64 327.50
  L 549.72 327.17
  L 551.45 326.50
  L 553.17 325.42
  L 554.50 323.96
  L 555.70 321.60
  L 556.77 319.43
  L 556.90 318.99
  L 556.74 318.57
  L 556.50 318.23
  L 557.06 318.08
  L 557.72 318.24
  L 561.83 320.45
  L 565.76 322.85
  L 570.61 326.27
  L 575.31 330.11
  L 579.67 334.23
  L 583.86 338.77
  L 587.79 343.63
  L 591.52 348.92
  L 594.96 354.48
  L 598.18 360.44
  L 601.16 366.74
  L 603.91 373.40
  L 606.45 380.47
  L 608.75 387.88
  L 610.83 395.72
  L 612.67 403.89
  L 614.30 412.51
  L 615.70 421.50
  L 616.72 424.96
  L 618.59 428.98
  L 622.28 435.65
  L 625.39 441.71
  L 627.85 447.00
  L 630.10 452.41
  L 632.14 457.95
  L 633.98 463.61
  L 635.60 469.40
  L 637.01 475.31
  L 638.22 481.35
  L 639.21 487.51
  L 640.00 494.05
  L 640.46 500.42
  L 640.61 506.51
  L 640.43 512.39
  L 639.92 518.05
  L 639.10 523.44
  L 637.93 528.68
  L 636.46 533.60
  L 635.00 537.58
  L 633.38 541.40
  L 631.59 545.08
  L 629.65 548.60
  L 627.54 551.97
  L 625.28 555.19
  L 622.85 558.25
  L 620.26 561.17
  L 620.26 561.17
  L 620.26 561.17
  L 620.26 561.17
  L 617.36 564.07
  L 614.28 566.81
  L 611.02 569.37
  L 607.59 571.77
  L 603.97 574.00
  L 600.18 576.07
  L 596.21 577.96
  L 592.06 579.69
  L 586.85 581.45
  L 582.04 582.63
  L 576.99 583.44
  L 571.81 583.88
  L 566.32 583.97
  L 540.69 583.94
  L 540.11 583.80
  L 540.48 583.32
  L 544.15 580.49
  L 550.70 575.53
  L 555.67 572.26
  L 560.33 569.80
  L 564.93 568.07
  L 567.92 567.39
  L 570.90 567.12
  L 573.52 567.29
  L 575.72 567.87
  L 577.02 568.41
  L 579.28 569.32
  L 580.98 569.77
  L 582.53 569.86
  L 583.82 569.57
  L 584.73 569.07
  L 585.60 568.29
  L 586.47 566.99
  L 586.86 565.63
  L 586.89 564.09
  L 586.68 563.01
  L 586.17 561.75
  L 585.41 560.62
  L 584.35 559.56
  L 583.10 558.64
  L 581.56 557.81
  L 579.75 557.08
  L 575.92 556.22
  L 571.55 555.89
  L 567.28 555.95
  L 563.10 556.38
  L 559.02 557.19
  L 559.02 557.19
  L 559.02 557.19
  L 555.40 558.25
  L 551.85 559.63
  L 548.39 561.32
  L 545.00 563.32
  L 537.45 568.56
  L 528.18 574.92
  L 524.46 577.09
  L 520.88 578.88
  L 515.64 581.00
  L 510.57 582.52
  L 505.68 583.43
  L 500.96 583.75
  L 453.67 583.79
  L 448.72 583.60
  L 443.87 583.06
  L 439.02 582.16
  L 434.29 580.91
  L 427.80 578.57
  L 421.62 575.58
  L 415.70 571.94
  L 410.18 567.70
  L 405.10 562.90
  L 400.49 557.58
  L 396.45 551.86
  L 392.95 545.69
  L 391.04 541.59
  L 389.39 537.39
  L 387.96 532.99
  L 386.78 528.50
  L 385.82 523.77
  L 385.11 518.98
  L 384.63 514.01
  L 384.40 509.00
  L 384.41 503.76
  L 384.67 498.52
  L 385.18 493.14
  L 385.91 487.80
  L 386.91 482.32
  L 388.13 476.91
  L 389.59 471.47
  L 391.25 466.16
  L 391.41 465.89
  L 391.71 465.71
  L 392.08 465.65
  Z
  M 488.5696 377.0176
  L 488.3488 375.0334
  L 487.7295 373.1291
  L 486.7356 371.3777
  L 485.4052 369.8466
  L 483.7894 368.5946
  L 481.9504 367.6699
  L 479.9588 367.1080
  L 477.8912 366.9304
  L 475.8269 367.1440
  L 473.8455 367.7406
  L 472.0229 368.6973
  L 470.4292 369.9773
  L 469.1257 371.5313
  L 468.1625 373.2998
  L 467.5765 375.2147
  L 467.3904 377.2024
  L 467.6112 379.1866
  L 468.2305 381.0909
  L 469.2244 382.8423
  L 470.5548 384.3734
  L 472.1706 385.6254
  L 474.0096 386.5501
  L 476.0012 387.1120
  L 478.0688 387.2896
  L 480.1331 387.0760
  L 482.1145 386.4794
  L 483.9371 385.5227
  L 485.5308 384.2427
  L 486.8343 382.6887
  L 487.7975 380.9202
  L 488.3835 379.0053
  L 488.5696 377.0176
  Z
  M 556.7936 375.3126
  L 556.2761 373.3868
  L 555.3849 371.5995
  L 554.1541 370.0194
  L 552.6312 368.7071
  L 550.8745 367.7132
  L 548.9516 367.0757
  L 546.9365 366.8193
  L 544.9065 366.9537
  L 542.9396 367.4738
  L 541.1116 368.3596
  L 539.4925 369.5770
  L 538.1446 371.0794
  L 537.1197 372.8089
  L 536.4572 374.6990
  L 536.1826 376.6772
  L 536.3064 378.6674
  L 536.8239 380.5932
  L 537.7151 382.3805
  L 538.9459 383.9606
  L 540.4688 385.2729
  L 542.2255 386.2668
  L 544.1484 386.9043
  L 546.1635 387.1607
  L 548.1935 387.0263
  L 550.1604 386.5062
  L 551.9884 385.6204
  L 553.6075 384.4030
  L 554.9554 382.9006
  L 555.9803 381.1711
  L 556.6428 379.2810
  L 556.9174 377.3028
  L 556.7936 375.3126
  Z
  M 553.8174 462.6974
  L 553.4357 460.7962
  L 552.3555 459.1857
  L 550.7413 458.1111
  L 548.8387 457.7361
  L 544.3787 457.7439
  L 542.4774 458.1255
  L 540.8669 459.2057
  L 539.7924 460.8200
  L 539.4174 462.7226
  L 539.4226 465.7426
  L 539.8043 467.6438
  L 540.8845 469.2543
  L 542.4987 470.3289
  L 544.4013 470.7039
  L 548.8613 470.6961
  L 550.7626 470.3145
  L 552.3731 469.2343
  L 553.4476 467.6200
  L 553.8226 465.7174
  L 553.8174 462.6974
  Z
  M 441.1982 516.0870
  L 440.7730 514.4720
  L 439.7622 513.1427
  L 438.3196 512.3015
  L 436.6649 512.0763
  L 431.6143 512.3852
  L 429.9994 512.8103
  L 428.6701 513.8212
  L 427.8288 515.2637
  L 427.6036 516.9185
  L 427.7818 519.8330
  L 428.2070 521.4480
  L 429.2178 522.7773
  L 430.6604 523.6185
  L 432.3151 523.8437
  L 437.3657 523.5348
  L 438.9806 523.1097
  L 440.3099 522.0988
  L 441.1512 520.6563
  L 441.3764 519.0015
  L 441.1982 516.0870
  Z"
/>
<path fill="#f2b957" d="
  M 302.67 405.94
  L 304.84 405.63
  L 306.73 404.88
  L 307.90 404.13
  L 308.92 403.20
  L 309.86 402.05
  L 310.64 400.76
  L 311.72 397.75
  L 312.10 394.48
  L 312.30 371.80
  L 312.67 367.35
  L 313.70 363.11
  L 314.93 360.06
  L 316.23 357.66
  L 317.73 355.53
  L 319.43 353.69
  L 321.32 352.12
  L 321.32 352.12
  L 324.07 350.51
  L 327.15 349.37
  L 330.56 348.69
  L 334.30 348.47
  L 335.73 348.66
  L 336.89 349.23
  L 336.89 349.23
  L 337.77 350.17
  L 338.37 351.50
  L 338.51 352.78
  L 338.28 353.73
  L 337.43 355.25
  L 336.31 356.42
  L 334.93 357.25
  L 333.28 357.73
  L 330.37 358.44
  L 327.97 359.47
  L 326.10 360.81
  L 324.74 362.47
  L 324.74 362.47
  L 324.46 362.98
  L 323.41 365.60
  L 322.67 368.63
  L 322.24 372.12
  L 322.14 375.91
  L 322.16 392.30
  L 322.01 395.64
  L 321.65 398.55
  L 321.09 401.02
  L 320.32 403.05
  L 318.44 406.25
  L 316.08 409.01
  L 314.02 410.73
  L 311.60 412.24
  L 309.01 413.43
  L 306.08 414.38
  L 302.84 415.07
  L 299.30 415.51
  L 295.29 415.71
  L 290.77 415.69
  L 289.55 415.55
  L 288.48 415.23
  L 287.48 414.69
  L 286.66 414.00
  L 285.60 412.40
  L 285.19 410.61
  L 285.42 408.84
  L 286.33 407.32
  L 287.08 406.69
  L 288.02 406.24
  L 289.04 405.99
  L 290.23 405.93
  L 296.51 406.04
  L 302.67 405.94
  Z"
/>
<path fill="#f2b957" d="
  M 716.47 403.89
  L 718.59 404.86
  L 720.78 405.44
  L 720.78 405.44
  L 722.77 405.63
  L 735.47 406.04
  L 737.41 406.41
  L 738.74 407.31
  L 739.45 408.75
  L 739.55 410.73
  L 739.53 410.91
  L 739.06 412.89
  L 738.09 414.33
  L 736.60 415.23
  L 734.61 415.60
  L 726.25 415.79
  L 721.70 415.57
  L 717.68 414.92
  L 713.94 413.68
  L 710.64 411.82
  L 710.64 411.82
  L 710.64 411.82
  L 710.64 411.82
  L 708.49 410.04
  L 706.59 407.91
  L 704.93 405.45
  L 703.52 402.64
  L 702.74 400.52
  L 702.19 398.30
  L 701.86 395.96
  L 701.76 393.51
  L 701.80 370.79
  L 701.66 368.61
  L 701.26 366.60
  L 700.60 364.77
  L 699.68 363.11
  L 699.68 363.11
  L 697.69 360.86
  L 695.05 359.04
  L 693.46 358.34
  L 691.82 357.95
  L 691.44 357.90
  L 690.19 357.67
  L 690.19 357.67
  L 688.61 357.02
  L 687.15 355.98
  L 686.47 355.25
  L 685.98 354.44
  L 685.63 352.67
  L 685.83 351.26
  L 686.42 350.17
  L 686.42 350.17
  L 687.28 349.48
  L 688.47 349.05
  L 690.78 348.81
  L 693.33 349.02
  L 698.26 350.07
  L 700.72 350.91
  L 702.96 352.08
  L 705.26 353.81
  L 707.28 355.97
  L 708.87 358.27
  L 708.87 358.27
  L 710.19 360.94
  L 711.14 363.84
  L 711.70 366.96
  L 711.89 370.31
  L 711.97 394.31
  L 711.98 394.82
  L 711.98 394.82
  L 712.47 397.93
  L 713.65 401.00
  L 714.51 402.30
  L 714.51 402.30
  L 715.40 403.17
  L 716.47 403.89
  Z"
/>
<ellipse fill="#353333" cx="0.00" cy="0.00" transform="translate(477.98,377.11) rotate(-0.5)" rx="10.59" ry="10.18"/>
<ellipse fill="#353333" cx="0.00" cy="0.00" transform="translate(546.55,376.99) rotate(-9.3)" rx="10.38" ry="10.17"/>
<rect fill="#eae0da" fill-opacity="0.980" x="-7.20" y="-6.48" transform="translate(546.62,464.22) rotate(-0.1)" width="14.40" height="12.96" rx="4.97"/>
<rect fill="#f2b957" x="273.95" y="505.82" width="93.52" height="10.42" rx="4.15"/>
<rect fill="#f2b957" x="659.06" y="505.87" width="90.78" height="10.40" rx="3.67"/>
<rect fill="#eae0da" fill-opacity="0.980" x="-6.81" y="-5.74" transform="translate(434.49,517.96) rotate(-3.5)" width="13.62" height="11.48" rx="4.28"/>
<rect fill="#f2b957" x="281.90" y="552.01" width="76.16" height="9.86" rx="4.20"/>
<rect fill="#f2b957" x="664.33" y="551.97" width="77.26" height="10.02" rx="4.53"/>
<path fill="#f2b957" d="
  M 659.28 587.97
  L 658.54 588.69
  L 658.08 589.42
  L 656.56 592.18
  L 654.92 594.68
  L 653.15 596.93
  L 651.21 598.96
  L 648.72 601.07
  L 645.96 602.94
  L 642.80 604.66
  L 639.27 606.20
  L 636.86 607.01
  L 634.32 607.59
  L 631.66 607.95
  L 628.88 608.07
  L 612.91 608.15
  L 610.69 607.87
  L 609.83 607.50
  L 609.15 606.98
  L 608.60 606.27
  L 608.23 605.40
  L 607.93 603.17
  L 608.21 601.17
  L 609.07 599.74
  L 609.07 599.74
  L 609.74 599.22
  L 610.56 598.86
  L 612.66 598.60
  L 618.67 598.62
  L 624.42 598.43
  L 629.91 598.03
  L 635.14 597.41
  L 637.73 596.78
  L 640.32 595.59
  L 642.67 593.95
  L 644.91 591.79
  L 646.90 589.18
  L 648.51 586.34
  L 649.72 583.28
  L 650.43 580.23
  L 650.75 579.22
  L 651.40 578.34
  L 652.32 577.65
  L 653.59 577.09
  L 655.07 576.72
  L 659.00 576.37
  L 664.48 576.57
  L 667.08 576.69
  L 702.23 576.65
  L 736.65 576.88
  L 741.40 576.78
  L 746.28 576.36
  L 747.16 576.40
  L 748.25 576.93
  L 749.11 577.91
  L 749.76 579.31
  L 750.08 580.93
  L 750.05 582.55
  L 749.67 584.09
  L 748.99 585.31
  L 747.99 586.24
  L 746.93 586.72
  L 745.63 586.89
  L 661.92 587.04
  L 660.96 587.15
  L 660.96 587.15
  L 660.10 587.46
  L 659.28 587.97
  Z"
/>
<path fill="#f2b957" d="
  M 415.80 605.53
  L 415.53 606.35
  L 415.11 606.97
  L 414.46 607.49
  L 413.68 607.81
  L 411.44 608.06
  L 397.60 608.21
  L 393.01 608.04
  L 388.69 607.38
  L 384.62 606.21
  L 380.82 604.54
  L 380.82 604.54
  L 380.82 604.54
  L 380.82 604.54
  L 378.09 602.93
  L 375.51 601.03
  L 373.08 598.84
  L 370.81 596.35
  L 369.10 594.04
  L 367.12 590.84
  L 365.86 588.75
  L 365.20 587.95
  L 364.35 587.33
  L 363.38 586.95
  L 362.35 586.83
  L 329.21 586.95
  L 297.98 586.76
  L 281.20 586.84
  L 278.95 586.81
  L 277.22 586.55
  L 275.81 586.02
  L 274.83 585.25
  L 274.27 584.46
  L 273.87 583.45
  L 273.65 580.96
  L 273.93 579.31
  L 274.68 578.02
  L 275.53 577.37
  L 276.75 576.91
  L 278.22 576.70
  L 280.30 576.65
  L 281.34 576.64
  L 297.87 576.58
  L 363.44 576.93
  L 367.13 577.05
  L 370.93 577.41
  L 371.87 577.69
  L 372.68 578.24
  L 373.27 579.02
  L 373.59 579.94
  L 374.26 582.80
  L 375.22 585.50
  L 376.47 588.01
  L 377.99 590.32
  L 379.75 592.37
  L 381.75 594.14
  L 383.88 595.57
  L 386.22 596.68
  L 389.61 597.64
  L 392.68 598.04
  L 396.70 598.28
  L 407.64 598.32
  L 410.40 598.39
  L 412.51 598.74
  L 414.09 599.42
  L 415.16 600.37
  L 415.69 601.33
  L 415.99 602.54
  L 416.02 603.90
  L 415.80 605.53
  Z"
/>
<path fill="#353333" d="
  M 751.32 665.45
  L 753.55 664.03
  L 755.87 662.82
  L 755.87 662.82
  L 759.25 661.50
  L 762.81 660.58
  L 765.78 660.13
  L 768.81 659.93
  L 771.92 659.97
  L 775.09 660.27
  L 778.94 660.98
  L 782.52 662.07
  L 785.83 663.55
  L 788.87 665.41
  L 791.01 667.09
  L 792.99 668.99
  L 795.48 672.07
  L 797.56 675.59
  L 799.21 679.53
  L 800.45 683.91
  L 801.24 688.20
  L 801.67 692.44
  L 801.74 696.65
  L 801.45 700.81
  L 801.45 700.81
  L 801.02 703.78
  L 800.23 707.45
  L 799.21 710.88
  L 797.92 714.11
  L 796.43 717.00
  L 794.70 719.60
  L 792.83 721.80
  L 790.75 723.68
  L 788.41 725.27
  L 787.13 726.05
  L 784.86 727.35
  L 783.09 728.01
  L 780.53 728.89
  L 777.58 729.84
  L 773.89 730.37
  L 770.23 730.60
  L 766.63 730.54
  L 763.06 730.17
  L 763.06 730.17
  L 763.06 730.17
  L 759.73 729.55
  L 758.25 729.15
  L 756.06 728.29
  L 753.96 727.14
  L 751.95 725.70
  L 750.03 723.97
  L 749.53 723.68
  L 748.96 723.67
  L 748.14 724.14
  L 747.90 724.64
  L 747.56 725.51
  L 746.90 726.56
  L 744.84 728.83
  L 743.89 729.52
  L 743.89 729.52
  L 742.79 729.94
  L 741.54 730.09
  L 741.15 730.09
  L 738.73 730.05
  L 736.99 729.82
  L 735.54 729.30
  L 734.48 728.52
  L 733.81 727.65
  L 733.33 726.51
  L 732.61 722.83
  L 732.39 718.39
  L 732.54 679.97
  L 732.33 641.98
  L 732.52 640.22
  L 733.13 638.54
  L 734.12 637.23
  L 735.31 636.44
  L 736.54 636.14
  L 740.71 635.95
  L 743.86 636.24
  L 746.27 637.03
  L 747.22 637.61
  L 748.06 638.36
  L 748.87 639.46
  L 749.47 640.85
  L 749.81 642.42
  L 749.93 644.29
  L 750.01 664.79
  L 750.05 665.03
  L 750.58 665.56
  L 751.32 665.45
  Z
  M 784.3661 691.2542
  L 783.9768 688.1400
  L 782.9875 685.1615
  L 781.4360 682.4332
  L 779.3822 680.0601
  L 776.9048 678.1332
  L 774.0991 676.7267
  L 771.0729 675.8946
  L 767.9425 675.6688
  L 765.0435 675.7447
  L 761.9292 676.1340
  L 758.9507 677.1234
  L 756.2225 678.6748
  L 753.8494 680.7287
  L 751.9225 683.2061
  L 750.5160 686.0118
  L 749.6838 689.0380
  L 749.4581 692.1683
  L 749.6539 699.6458
  L 750.0432 702.7600
  L 751.0325 705.7385
  L 752.5840 708.4668
  L 754.6378 710.8399
  L 757.1152 712.7668
  L 759.9209 714.1733
  L 762.9471 715.0054
  L 766.0775 715.2312
  L 768.9765 715.1553
  L 772.0908 714.7660
  L 775.0693 713.7766
  L 777.7975 712.2252
  L 780.1706 710.1713
  L 782.0975 707.6939
  L 783.5040 704.8882
  L 784.3362 701.8620
  L 784.5619 698.7317
  L 784.3661 691.2542
  Z"
/>
<path fill="#353333" d="
  M 608.87 712.32
  L 609.15 713.15
  L 609.97 713.42
  L 640.25 713.37
  L 642.12 713.60
  L 643.72 714.22
  L 645.02 715.21
  L 645.78 716.40
  L 646.00 717.20
  L 646.30 720.03
  L 646.30 723.20
  L 645.97 726.38
  L 645.95 726.47
  L 645.45 727.54
  L 644.35 728.48
  L 642.81 729.16
  L 641.16 729.45
  L 632.16 729.60
  L 620.00 729.52
  L 608.57 729.44
  L 600.20 729.56
  L 597.71 729.48
  L 595.68 729.09
  L 594.03 728.38
  L 592.69 727.30
  L 591.95 726.27
  L 591.41 725.02
  L 591.11 723.64
  L 591.00 722.02
  L 590.96 645.51
  L 591.10 644.28
  L 591.51 643.15
  L 592.13 642.26
  L 592.97 641.59
  L 594.46 641.11
  L 599.00 640.87
  L 603.60 641.14
  L 605.66 641.68
  L 607.21 642.72
  L 607.94 643.65
  L 608.46 644.74
  L 608.77 645.97
  L 608.87 647.33
  L 608.87 712.32
  Z"
/>
<path fill="#353333" d="
  M 275.61 676.03
  L 275.91 675.81
  L 276.02 675.46
  L 276.04 646.25
  L 276.31 644.32
  L 277.12 642.89
  L 278.42 641.96
  L 280.24 641.49
  L 280.31 641.48
  L 285.28 641.09
  L 289.04 641.34
  L 290.49 641.69
  L 291.78 642.24
  L 292.76 642.92
  L 293.51 643.81
  L 293.75 644.25
  L 294.23 646.23
  L 294.37 649.44
  L 294.36 687.22
  L 294.76 722.77
  L 294.57 725.07
  L 293.94 727.07
  L 292.91 728.65
  L 291.59 729.61
  L 290.67 729.91
  L 289.62 729.99
  L 281.82 730.01
  L 279.85 729.71
  L 278.32 728.86
  L 277.14 727.57
  L 276.34 725.89
  L 276.06 724.00
  L 275.97 694.00
  L 275.86 693.49
  L 275.57 693.06
  L 275.14 692.77
  L 274.62 692.68
  L 274.62 692.68
  L 274.61 692.68
  L 258.53 692.87
  L 243.10 692.73
  L 242.39 693.01
  L 242.09 693.71
  L 242.09 693.71
  L 242.09 693.72
  L 242.18 724.50
  L 242.02 725.98
  L 241.56 727.30
  L 240.82 728.43
  L 239.81 729.29
  L 238.42 729.89
  L 236.77 730.04
  L 233.20 730.05
  L 230.16 730.08
  L 227.96 729.89
  L 227.61 729.82
  L 226.21 729.14
  L 225.00 727.82
  L 224.22 726.08
  L 223.95 724.20
  L 223.83 649.56
  L 223.82 648.80
  L 223.83 646.45
  L 224.08 644.72
  L 224.63 643.35
  L 225.44 642.44
  L 226.12 642.05
  L 226.97 641.81
  L 231.98 641.30
  L 236.82 641.43
  L 239.20 642.00
  L 240.12 642.52
  L 240.87 643.20
  L 240.87 643.20
  L 240.87 643.20
  L 241.49 644.11
  L 241.90 645.21
  L 242.09 650.83
  L 242.08 675.32
  L 242.42 676.14
  L 243.23 676.48
  L 259.01 676.51
  L 274.00 676.29
  L 275.61 676.03
  Z"
/>
<path fill="#353333" d="
  M 409.96 663.11
  L 410.47 663.88
  L 411.24 664.38
  L 412.15 664.52
  L 413.03 664.29
  L 413.03 664.29
  L 413.21 664.19
  L 414.30 663.55
  L 414.30 663.55
  L 414.30 663.55
  L 417.97 661.82
  L 421.92 660.59
  L 426.14 659.86
  L 430.65 659.63
  L 433.14 659.75
  L 435.53 660.09
  L 437.84 660.65
  L 440.06 661.42
  L 440.06 661.42
  L 440.06 661.42
  L 443.65 663.26
  L 446.98 665.73
  L 447.68 666.15
  L 448.48 666.31
  L 449.29 666.18
  L 450.01 665.78
  L 453.79 663.11
  L 455.43 662.29
  L 456.97 661.78
  L 459.10 661.07
  L 462.23 660.17
  L 468.00 659.68
  L 473.23 659.88
  L 477.84 660.76
  L 479.91 661.45
  L 481.92 662.35
  L 484.67 664.00
  L 487.09 665.99
  L 487.09 665.99
  L 487.09 665.99
  L 488.76 667.78
  L 490.24 669.78
  L 491.52 671.99
  L 492.60 674.40
  L 493.30 676.60
  L 493.80 679.07
  L 494.10 681.80
  L 494.20 684.81
  L 494.16 724.97
  L 493.84 726.83
  L 492.95 728.33
  L 492.14 729.05
  L 491.17 729.58
  L 490.07 729.89
  L 488.85 729.97
  L 486.43 730.00
  L 483.70 730.04
  L 481.74 729.87
  L 480.15 729.44
  L 479.03 728.75
  L 478.17 727.82
  L 477.57 726.79
  L 477.23 725.74
  L 477.10 724.60
  L 476.96 708.68
  L 477.02 688.91
  L 476.86 686.24
  L 476.27 682.85
  L 476.10 681.98
  L 475.57 680.38
  L 474.58 678.87
  L 473.11 677.31
  L 471.83 676.43
  L 469.97 675.69
  L 468.12 675.17
  L 466.28 674.89
  L 464.44 674.85
  L 464.44 674.85
  L 464.44 674.85
  L 461.53 675.26
  L 458.64 676.26
  L 457.43 676.96
  L 456.30 677.90
  L 455.25 679.10
  L 454.29 680.55
  L 454.11 681.02
  L 454.10 681.54
  L 454.60 688.25
  L 454.75 704.11
  L 454.60 723.77
  L 454.34 725.69
  L 453.63 727.49
  L 452.52 728.89
  L 451.19 729.72
  L 449.37 730.00
  L 446.65 730.03
  L 443.96 730.06
  L 442.02 729.86
  L 440.39 729.36
  L 439.12 728.56
  L 438.01 727.21
  L 437.39 725.81
  L 437.10 723.83
  L 437.11 688.07
  L 436.75 684.28
  L 436.29 682.53
  L 435.64 680.86
  L 434.58 679.03
  L 433.23 677.54
  L 433.23 677.54
  L 431.71 676.44
  L 429.95 675.63
  L 427.93 675.10
  L 425.66 674.85
  L 423.84 674.92
  L 421.69 675.28
  L 419.61 675.88
  L 417.79 676.65
  L 416.39 677.49
  L 415.24 678.49
  L 414.48 679.54
  L 414.05 680.73
  L 413.97 681.52
  L 413.95 723.90
  L 413.66 725.82
  L 412.82 727.58
  L 411.59 728.91
  L 409.97 729.75
  L 408.53 729.95
  L 401.31 729.98
  L 400.06 729.83
  L 398.47 729.05
  L 397.23 727.77
  L 396.40 726.07
  L 396.10 724.19
  L 396.11 665.23
  L 396.21 663.67
  L 396.50 662.41
  L 397.00 661.34
  L 397.67 660.54
  L 398.89 659.83
  L 400.58 659.49
  L 402.76 659.56
  L 405.79 660.04
  L 406.40 660.21
  L 407.91 661.22
  L 409.34 662.22
  L 409.67 662.47
  L 409.87 662.85
  L 409.96 663.11
  Z"
/>
<path fill="#353333" d="
  M 380.7838 699.0778
  L 380.6437 702.1473
  L 380.2035 705.1882
  L 379.4673 708.1713
  L 378.4423 711.0679
  L 377.1383 713.8501
  L 375.5678 716.4911
  L 373.7461 718.9654
  L 371.6906 721.2492
  L 369.4212 723.3206
  L 366.9596 725.1596
  L 364.3297 726.7484
  L 361.5567 728.0718
  L 358.6673 729.1170
  L 355.6894 729.8740
  L 352.6516 730.3355
  L 349.5833 730.4969
  L 342.2233 730.5226
  L 339.1539 730.3826
  L 336.1130 729.9423
  L 333.1298 729.2062
  L 330.2332 728.1811
  L 327.4511 726.8771
  L 324.8101 725.3067
  L 322.3358 723.4850
  L 320.0519 721.4295
  L 317.9805 719.1600
  L 316.1416 716.6985
  L 314.5528 714.0686
  L 313.2294 711.2955
  L 312.1841 708.4062
  L 311.4271 705.4283
  L 310.9657 702.3905
  L 310.8042 699.3221
  L 310.7762 691.3022
  L 310.9163 688.2327
  L 311.3565 685.1918
  L 312.0927 682.2087
  L 313.1177 679.3121
  L 314.4217 676.5299
  L 315.9922 673.8889
  L 317.8139 671.4146
  L 319.8694 669.1308
  L 322.1388 667.0594
  L 324.6004 665.2204
  L 327.2303 663.6316
  L 330.0033 662.3082
  L 332.8927 661.2630
  L 335.8706 660.5060
  L 338.9084 660.0445
  L 341.9767 659.8831
  L 349.3367 659.8574
  L 352.4061 659.9974
  L 355.4470 660.4377
  L 358.4302 661.1738
  L 361.3268 662.1989
  L 364.1089 663.5029
  L 366.7499 665.0733
  L 369.2242 666.8950
  L 371.5081 668.9505
  L 373.5795 671.2200
  L 375.4184 673.6815
  L 377.0072 676.3114
  L 378.3306 679.0845
  L 379.3759 681.9738
  L 380.1329 684.9517
  L 380.5943 687.9895
  L 380.7558 691.0579
  L 380.7838 699.0778
  Z
  M 363.5809 691.4169
  L 363.2511 688.2386
  L 362.3075 685.1857
  L 360.7865 682.3756
  L 358.7465 679.9162
  L 356.2658 677.9021
  L 353.4399 676.4106
  L 350.3774 675.4990
  L 347.1958 675.2025
  L 344.2158 675.2181
  L 341.0375 675.5479
  L 337.9847 676.4915
  L 335.1745 678.0125
  L 332.7151 680.0525
  L 330.7010 682.5331
  L 329.2095 685.3590
  L 328.2979 688.4216
  L 328.0014 691.6032
  L 328.0391 698.8031
  L 328.3689 701.9814
  L 329.3125 705.0343
  L 330.8335 707.8444
  L 332.8735 710.3038
  L 335.3542 712.3179
  L 338.1801 713.8094
  L 341.2426 714.7210
  L 344.4242 715.0175
  L 347.4042 715.0019
  L 350.5825 714.6721
  L 353.6353 713.7285
  L 356.4455 712.2075
  L 358.9049 710.1675
  L 360.9190 707.6869
  L 362.4105 704.8610
  L 363.3221 701.7984
  L 363.6186 698.6168
  L 363.5809 691.4169
  Z"
/>
<path fill="#353333" d="
  M 695.74 686.14
  L 696.01 686.11
  L 696.42 685.90
  L 696.70 685.53
  L 696.79 685.08
  L 696.66 684.63
  L 695.98 682.52
  L 695.66 681.24
  L 695.24 680.30
  L 694.13 678.67
  L 692.87 677.32
  L 691.48 676.31
  L 690.12 675.73
  L 688.38 675.02
  L 687.02 674.42
  L 685.93 674.17
  L 681.48 673.90
  L 677.22 674.07
  L 673.15 674.68
  L 669.28 675.72
  L 667.63 676.17
  L 666.04 676.39
  L 664.53 676.38
  L 663.08 676.14
  L 662.65 675.96
  L 662.26 675.62
  L 660.77 673.20
  L 660.26 671.75
  L 659.95 670.20
  L 659.84 668.57
  L 659.95 666.84
  L 659.99 666.59
  L 660.47 665.35
  L 661.36 664.27
  L 662.65 663.29
  L 664.42 662.37
  L 666.63 661.56
  L 669.19 660.88
  L 672.18 660.33
  L 675.05 660.01
  L 680.06 659.76
  L 684.65 659.74
  L 688.81 659.92
  L 692.53 660.33
  L 694.68 660.78
  L 696.92 661.49
  L 699.22 662.48
  L 701.61 663.73
  L 702.95 664.57
  L 705.23 666.41
  L 707.19 668.53
  L 708.92 671.04
  L 710.33 673.78
  L 711.46 676.83
  L 712.32 680.23
  L 712.83 683.80
  L 713.01 687.40
  L 713.05 724.24
  L 712.94 725.82
  L 712.62 727.16
  L 712.10 728.24
  L 711.36 729.08
  L 709.85 729.86
  L 707.87 730.08
  L 706.56 730.08
  L 704.39 730.01
  L 702.80 729.58
  L 701.96 729.10
  L 700.75 728.01
  L 699.99 726.75
  L 699.99 726.75
  L 699.72 725.66
  L 699.44 724.92
  L 698.85 724.38
  L 698.09 724.18
  L 697.31 724.34
  L 696.86 724.66
  L 696.33 725.18
  L 694.27 727.06
  L 692.45 728.10
  L 690.86 728.78
  L 689.13 729.50
  L 687.69 729.90
  L 683.85 730.49
  L 680.05 730.76
  L 676.50 730.67
  L 673.07 730.23
  L 669.99 729.47
  L 667.08 728.35
  L 664.48 726.93
  L 662.09 725.13
  L 660.25 723.32
  L 658.61 721.21
  L 657.22 718.89
  L 656.03 716.29
  L 655.01 713.21
  L 654.34 710.06
  L 654.05 707.01
  L 654.13 704.00
  L 654.57 701.25
  L 655.39 698.64
  L 656.54 696.31
  L 658.07 694.19
  L 660.19 692.14
  L 662.82 690.44
  L 666.49 688.79
  L 670.80 687.34
  L 675.47 686.28
  L 679.75 685.92
  L 695.74 686.14
  Z
  M 690.29 715.30
  L 691.18 714.88
  L 693.47 713.31
  L 695.67 711.03
  L 695.95 710.54
  L 696.02 710.10
  L 696.18 700.60
  L 696.06 699.62
  L 695.66 698.90
  L 695.66 698.90
  L 695.66 698.90
  L 694.97 698.42
  L 694.00 698.21
  L 687.26 697.91
  L 680.60 698.09
  L 678.72 698.38
  L 676.78 699.00
  L 674.97 699.86
  L 673.31 700.98
  L 672.02 702.17
  L 670.99 703.53
  L 670.33 704.92
  L 670.02 706.42
  L 670.03 707.62
  L 670.29 708.87
  L 670.99 710.72
  L 671.86 712.33
  L 672.97 713.75
  L 674.24 714.92
  L 676.56 716.24
  L 679.21 716.96
  L 682.24 717.11
  L 685.48 716.68
  L 688.18 716.02
  L 690.29 715.30
  Z"
/>
<path fill="#353333" d="
  M 527.22 703.41
  L 527.51 704.17
  L 527.59 704.54
  L 528.02 706.41
  L 528.68 708.15
  L 529.60 709.84
  L 530.73 711.36
  L 532.92 713.39
  L 535.52 714.89
  L 538.35 715.80
  L 541.41 716.10
  L 543.66 716.11
  L 547.39 716.10
  L 550.17 715.92
  L 552.56 715.53
  L 554.69 714.90
  L 557.84 714.08
  L 560.85 713.30
  L 562.52 712.94
  L 564.04 713.05
  L 565.62 713.70
  L 566.94 714.79
  L 568.03 716.33
  L 568.74 718.13
  L 569.05 720.04
  L 568.91 721.92
  L 568.35 723.53
  L 567.33 724.88
  L 565.98 725.80
  L 562.83 727.16
  L 559.60 728.30
  L 559.60 728.30
  L 559.60 728.30
  L 555.14 729.49
  L 550.56 730.27
  L 545.85 730.65
  L 541.01 730.63
  L 535.83 730.13
  L 531.14 729.10
  L 526.94 727.56
  L 523.24 725.49
  L 521.29 724.06
  L 519.50 722.50
  L 517.89 720.82
  L 516.44 719.01
  L 516.44 719.01
  L 515.04 716.88
  L 513.85 714.59
  L 512.87 712.16
  L 512.09 709.57
  L 511.19 705.39
  L 510.62 701.23
  L 510.37 697.09
  L 510.44 692.97
  L 510.44 692.97
  L 511.11 687.15
  L 512.43 681.37
  L 513.47 678.31
  L 514.76 675.46
  L 516.32 672.85
  L 518.14 670.45
  L 519.79 668.69
  L 521.61 667.07
  L 524.04 665.28
  L 526.57 663.73
  L 529.00 662.55
  L 531.27 661.75
  L 533.24 661.12
  L 535.69 660.36
  L 537.68 660.07
  L 545.91 659.88
  L 551.18 660.23
  L 555.50 661.21
  L 559.40 662.65
  L 562.88 664.54
  L 565.95 666.90
  L 565.95 666.90
  L 565.95 666.90
  L 568.58 669.69
  L 570.80 672.94
  L 572.62 676.63
  L 574.02 680.78
  L 574.90 684.67
  L 575.36 688.46
  L 575.41 692.15
  L 575.04 695.74
  L 574.30 698.15
  L 574.30 698.15
  L 573.11 700.03
  L 571.40 701.66
  L 570.89 701.94
  L 570.24 702.05
  L 528.05 702.04
  L 527.31 702.40
  L 527.14 703.20
  L 527.22 703.41
  Z
  M 528.93 688.65
  L 557.35 688.05
  L 557.97 687.78
  L 558.22 687.14
  L 558.21 686.94
  L 557.89 684.36
  L 557.06 681.89
  L 555.73 679.62
  L 553.98 677.65
  L 551.85 676.04
  L 549.44 674.86
  L 546.84 674.16
  L 544.14 673.96
  L 541.54 674.02
  L 538.85 674.33
  L 536.28 675.14
  L 533.92 676.42
  L 531.87 678.11
  L 530.19 680.16
  L 528.96 682.48
  L 528.23 684.98
  L 528.02 687.57
  L 528.03 687.77
  L 528.30 688.40
  L 528.93 688.65
  Z"
/>
</svg>
